{"title":"The Vow[2012]ENG[BRrip]XviD-{RedDragon}","uid":7318413,"size":783062764,"categoryP":"video","categoryS":"movies","magnet":"?xt=urn:btih:5bb8cbac1d0f5334685a065b12e664f4736964bb&amp;dn=The+Vow%5B2012%5DENG%5BBRrip%5DXviD-%7BRedDragon%7D&amp;tr=udp%3A%2F%2Ftracker.openbittorrent.com%3A80&amp;tr=udp%3A%2F%2Fopen.demonii.com%3A1337&amp;tr=udp%3A%2F%2Ftracker.coppersurfer.tk%3A6969&amp;tr=udp%3A%2F%2Fexodus.desync.com%3A6969","seeders":1,"leechers":0,"uploader":"RedDr4gon","files":13,"time":1338511246,"description":"[b][img]http://upload.wikimedia.org/wikipedia/en/thumb/c/c2/The_Vow_Poster.jpg/220px-The_Vow_Poster.jpg[/img]\n\nGeneral.\n\nComplete name                    : The Vow[2012]ENG[BRrip]XviD-{RedDragon}.m4v\nFormat                           : MPEG-4\nFormat profile                   : Base Media / Version 2\nCodec ID                         : mp42\nFile size                        : 747 MiB\nDuration                         : 1h 39mn\nOverall bit rate                 : 1,045 Kbps\nIMDB LINK                        : http://www.imdb.com/title/tt1606389/\nIMDB Rating                      : 6.6/10\n\n\nVideo.\n\nID                               : 1\nFormat                           : MPEG-4 Visual\nFormat profile                   : Simple@L1\nFormat settings, BVOP            : No\nFormat settings, QPel            : No\nFormat settings, GMC             : No warppoints\nFormat settings, Matrix          : Default (H.263)\nCodec ID                         : 20\nDuration                         : 1h 39mn\nBit rate mode                    : Variable\nBit rate                         : 883 Kbps\nMaximum bit rate                 : 3 729 Kbps\nWidth                            : 640 pixels\nHeight                           : 256 pixels\nDisplay aspect ratio             : 2.500\nFrame rate mode                  : Constant\nFrame rate                       : 25.000 fps\nColor space                      : YUV\nChroma subsampling               : 4:2:0\nBit depth                        : 8 bits\nScan type                        : Progressive\nBits/(Pixel*Frame)               : 0.215\nStream size                      : 631 MiB (84%)\nWriting library                  : Lavc52.94.3\nEncoded date                     : UTC 2012-06-01 04:25:13\nTagged date                      : UTC 2012-06-01 04:32:19\n\n\nAudio.\n\nID                               : 2\nFormat                           : AAC\nFormat/Info                      : Advanced Audio Codec\nFormat version                   : Version 4\nFormat profile                   : LC\nFormat settings, SBR             : No\nCodec ID                         : 40\nDuration                         : 1h 39mn\nBit rate mode                    : Variable\nBit rate                         : 160 Kbps\nMaximum bit rate                 : 286 Kbps\nChannel(s)                       : 2 channels\nChannel positions                : Front: L R\nSampling rate                    : 44.1 KHz\nStream size                      : 114 MiB (15%)\nEncoded date                     : UTC 2012-06-01 04:25:13\nTagged date                      : UTC 2012-06-01 04:32:19[/b]","torrent":{"xt":"urn:btih:5bb8cbac1d0f5334685a065b12e664f4736964bb","amp;dn":"The+Vow%5B2012%5DENG%5BBRrip%5DXviD-%7BRedDragon%7D","amp;tr":["udp%3A%2F%2Ftracker.openbittorrent.com%3A80","udp%3A%2F%2Fopen.demonii.com%3A1337","udp%3A%2F%2Ftracker.coppersurfer.tk%3A6969","udp%3A%2F%2Fexodus.desync.com%3A6969"],"infoHash":"5bb8cbac1d0f5334685a065b12e664f4736964bb","infoHashBuffer":{"type":"Buffer","data":[91,184,203,172,29,15,83,52,104,90,6,91,18,230,100,244,115,105,100,187]},"announce":[],"urlList":[]}}